<?xml version="1.0" encoding="utf-8"?>
<!-- Generator: Adobe Illustrator 24.0.3, SVG Export Plug-In . SVG Version: 6.00 Build 0)  -->
<svg version="1.1" id="图层_1" xmlns="http://www.w3.org/2000/svg" xmlns:xlink="http://www.w3.org/1999/xlink" x="0px" y="0px"
	 viewBox="0 0 125.6 37.1" style="enable-background:new 0 0 125.6 37.1;" xml:space="preserve">
<style type="text/css">
	.st0{fill:#040000;}
	.st1{fill:#FBE4AB;}
	.st2{fill:#6FC6CB;}
</style>
<g>
	<path class="st0" d="M52,31.5V8.2h5.1c2.4,0,4.4,0.2,5.8,0.7c1.5,0.5,2.9,1.2,4.1,2.3c2.5,2.2,3.8,5.1,3.8,8.7s-1.3,6.5-3.9,8.7
		c-1.3,1.1-2.7,1.9-4.1,2.3c-1.3,0.4-3.3,0.6-5.7,0.6C57.1,31.5,52,31.5,52,31.5z M55.7,28.2h1.7c1.7,0,3-0.2,4.1-0.5
		c1.1-0.4,2.1-0.9,3-1.7c1.8-1.6,2.7-3.6,2.7-6.2s-0.9-4.6-2.7-6.2c-1.6-1.4-4-2.1-7.1-2.1h-1.7V28.2z"/>
	<path class="st0" d="M88.8,25h-11c0.1,1.2,0.5,2.2,1.2,2.9c0.7,0.7,1.7,1.1,2.8,1.1c0.9,0,1.6-0.2,2.2-0.6s1.2-1.1,1.9-2.2l3,1.6
		c-0.5,0.8-1,1.4-1.5,1.9s-1.1,1-1.7,1.3s-1.2,0.6-1.9,0.8C83.1,32,82.4,32,81.6,32c-2.3,0-4.1-0.7-5.5-2.1S74,26.6,74,24.2
		c0-2.3,0.7-4.2,2-5.7c1.4-1.4,3.2-2.1,5.4-2.1c2.3,0,4,0.7,5.4,2.1c1.3,1.4,2,3.3,2,5.7L88.8,25z M85.1,22.2
		c-0.5-1.8-1.7-2.7-3.6-2.7c-0.4,0-0.8,0.1-1.2,0.2s-0.7,0.3-1,0.5s-0.6,0.5-0.8,0.9c-0.2,0.3-0.4,0.7-0.5,1.1H85.1z"/>
	<path class="st0" d="M96.2,6v25.5h-3.5V6H96.2z"/>
	<path class="st0" d="M104.3,20v11.5h-3.5V20h-1.5v-3.2h1.5v-5.4h3.5v5.4h2.8V20H104.3z"/>
	<path class="st0" d="M121.1,16.8h3.6v14.7h-3.6V30c-1.5,1.3-3,2-4.7,2c-2.1,0-3.9-0.7-5.3-2.2s-2.1-3.4-2.1-5.6s0.7-4,2.1-5.5
		s3.1-2.2,5.2-2.2c1.8,0,3.4,0.7,4.8,2.1V16.8z M112.7,24.1c0,1.4,0.4,2.6,1.2,3.4c0.8,0.9,1.8,1.3,3.1,1.3c1.3,0,2.4-0.4,3.2-1.3
		c0.8-0.9,1.2-2,1.2-3.4s-0.4-2.5-1.2-3.4c-0.8-0.9-1.9-1.3-3.2-1.3c-1.2,0-2.2,0.4-3.1,1.3C113.1,21.7,112.7,22.8,112.7,24.1z"/>
</g>
<g>
	<path class="st1" d="M24.6,36.4l4.5-8c0.3-0.5,0.8-0.8,1.3-0.8s1,0.3,1.3,0.7l4.7,8.1h6.2l-10-17c-0.5-0.8-1.4-1.3-2.3-1.3
		s-1.8,0.5-2.3,1.4l-9.6,16.9H24.6z"/>
	<path class="st2" d="M14.7,36.4h-11c-1,0-1.9-0.4-2.4-1.2s-0.5-1.9-0.1-2.7l16.6-30c0.5-0.8,1.3-1.4,2.3-1.4s1.9,0.5,2.4,1.3
		l5.7,9.4L14.7,36.4z"/>
</g>
</svg>
