<svg id="图层_1" data-name="图层 1" xmlns="http://www.w3.org/2000/svg" viewBox="0 0 116 147"><defs><style>.cls-1{fill:#cfd8e3;}.cls-1,.cls-2,.cls-3{fill-rule:evenodd;}.cls-2,.cls-3,.cls-7,.cls-8{fill:#fff;}.cls-2{opacity:0.6;}.cls-10,.cls-2,.cls-6,.cls-9{isolation:isolate;}.cls-4,.cls-6{opacity:0.7;}.cls-5,.cls-6{fill:#c3c3c4;}.cls-7,.cls-8{stroke:#053e5d;stroke-miterlimit:10;}.cls-7{stroke-width:2.14px;}.cls-8{stroke-width:0.54px;}.cls-9{font-size:22.77px;font-family:STYuanti-SC-Bold, Yuanti SC;font-weight:700;}.cls-10,.cls-9{fill:#053e5d;}.cls-10{font-size:12px;font-family:STYuanti-SC-Regular, Yuanti SC;}</style></defs><title>yan_icon</title><g id="矩形"><path class="cls-1" d="M26,106H98a13,13,0,0,1,13,13v16a13,13,0,0,1-13,13H26a13,13,0,0,1-13-13V119A13,13,0,0,1,26,106Z" transform="translate(-4 -1)"/></g><path id="矩形-2" data-name="矩形" class="cls-1" d="M17,1h90a13,13,0,0,1,13,13V130a13,13,0,0,1-13,13H17A13,13,0,0,1,4,130V14A13,13,0,0,1,17,1Z" transform="translate(-4 -1)"/><path id="矩形-3" data-name="矩形" class="cls-2" d="M25,40H98.9a4,4,0,0,1,4,4v84a4,4,0,0,1-4,4H25a4,4,0,0,1-4-4V44A4,4,0,0,1,25,40Z" transform="translate(-4 -1)"/><path id="矩形-4" data-name="矩形" class="cls-2" d="M21,27h81a4,4,0,0,1,4,4v92a4,4,0,0,1-4,4H21a4,4,0,0,1-4-4V31A4,4,0,0,1,21,27Z" transform="translate(-4 -1)"/><path id="矩形-5" data-name="矩形" class="cls-3" d="M17,12h90a4,4,0,0,1,4,4V118a4,4,0,0,1-4,4H17a4,4,0,0,1-4-4V16A4,4,0,0,1,17,12Z" transform="translate(-4 -1)"/><g class="cls-4"><polygon id="直线备份-24" class="cls-5" points="100.6 52.2 100.6 47.7 16.5 47.7 16.5 52.2 100.6 52.2"/><polygon id="直线备份-23" class="cls-5" points="72.8 43.1 72.8 38.5 16.5 38.4 16.5 43 72.8 43.1"/><polygon id="直线备份-23-2" data-name="直线备份-23" class="cls-5" points="100.6 43.1 100.6 38.5 87.3 38.5 87.3 43.1 100.6 43.1"/></g><g class="cls-4"><polygon id="直线备份-24-2" data-name="直线备份-24" class="cls-5" points="87.3 72.7 87.3 68.1 16.5 68.1 16.5 72.7 87.3 72.7"/><polygon id="直线备份-23-3" data-name="直线备份-23" class="cls-5" points="63.9 63.5 63.9 59 16.5 58.8 16.5 63.4 63.9 63.5"/><polygon id="直线备份-23-4" data-name="直线备份-23" class="cls-5" points="87.3 63.5 87.3 59 76.1 59 76.1 63.5 87.3 63.5"/></g><g class="cls-4"><polygon id="直线备份-24-3" data-name="直线备份-24" class="cls-5" points="74.7 94.8 74.7 90.2 16.5 90.2 16.5 94.8 74.7 94.8"/><polygon id="直线备份-23-5" data-name="直线备份-23" class="cls-5" points="55.5 85.6 55.5 81.1 16.5 80.9 16.5 85.5 55.5 85.6"/><polygon id="直线备份-23-6" data-name="直线备份-23" class="cls-5" points="74.7 85.6 74.7 81.1 65.5 81.1 65.5 85.6 74.7 85.6"/></g><polygon id="直线备份-23-7" data-name="直线备份-23" class="cls-6" points="40.3 112 40.3 106.9 16.5 106.8 16.5 111.8 40.3 112"/><circle class="cls-7" cx="83.8" cy="106.9" r="20.7"/><circle class="cls-8" cx="83.8" cy="106.9" r="16.1"/><text class="cls-9" transform="matrix(0.96, 0.27, -0.27, 0.96, 70.89, 110.67)">验</text><text class="cls-10" transform="translate(35.8 26.2)">知识产权</text></svg>