<?xml version="1.0" encoding="UTF-8"?>
<svg width="187px" height="31px" viewBox="0 0 187 31" version="1.1" xmlns="http://www.w3.org/2000/svg" xmlns:xlink="http://www.w3.org/1999/xlink">
    <!-- Generator: Sketch 59.1 (86144) - https://sketch.com -->
    <title>编组</title>
    <desc>Created with Sketch.</desc>
    <g id="页面-1" stroke="none" stroke-width="1" fill="none" fill-rule="evenodd">
        <g id="画板" transform="translate(-44.000000, -15.000000)" fill-rule="nonzero">
            <g id="编组" transform="translate(44.000000, 15.000000)">
                <path d="M187,4.98919972 L187,26.2577904 L183.986708,26.2577904 L183.986708,24.5700248 C183.449774,25.3201465 182.82259,25.8781557 182.105136,26.2440687 C181.387682,26.6099817 180.566094,26.7929356 179.640347,26.7929356 C177.779595,26.7929356 176.314622,26.1640319 175.245383,24.9062057 C174.176145,23.6483796 173.641535,21.926327 173.641535,19.7399965 C173.641535,17.6634398 174.187717,15.9871257 175.280099,14.7110039 C176.372481,13.434882 177.79811,12.7968307 179.55703,12.7968307 C180.630896,12.7968307 181.549687,13.0186622 182.313429,13.4623318 C183.07717,13.9060014 183.634924,14.5440527 183.986708,15.376505 L183.986708,4.98919972 L187,4.98919972 Z M71.8144814,12.7968307 C73.9344425,12.7968307 75.5868764,13.3960044 76.7718328,14.5943697 C77.9567892,15.792735 78.5492585,17.471336 78.5492585,19.6302231 L78.5492585,20.1928116 L68.0235656,20.1928116 C68.0976253,21.4094726 68.46329,22.3585454 69.1205705,23.0400584 C69.777851,23.7215715 70.652669,24.0623229 71.7450507,24.0623229 C72.7170853,24.0623229 73.5271019,23.8610738 74.1751249,23.4585694 C74.8231479,23.0560651 75.3878452,22.406579 75.8692338,21.5100921 L78.4103972,22.9097025 C77.6697994,24.2178418 76.7533234,25.1920707 75.6609417,25.8324186 C74.5685601,26.4727664 73.2864194,26.7929356 71.8144814,26.7929356 C69.7037778,26.7929356 68.0235718,26.1571711 66.7738131,24.8856232 C65.5240544,23.6140753 64.8991844,21.9171789 64.8991844,19.7948831 C64.8991844,17.7549178 65.5448834,16.0786037 66.8363007,14.7658906 C68.1277181,13.4531775 69.787095,12.7968307 71.8144814,12.7968307 Z M152.534604,12.7968307 C153.608471,12.7968307 154.527261,13.0186622 155.291003,13.4623318 C156.054744,13.9060014 156.612499,14.5440527 156.964282,15.376505 L156.964282,13.2496459 L159.977575,13.2496459 L159.977575,26.2577904 L156.964282,26.2577904 L156.964282,24.5700248 C156.427349,25.3201465 155.800165,25.8781557 155.08271,26.2440687 C154.365257,26.6099817 153.543668,26.7929356 152.617921,26.7929356 C150.75717,26.7929356 149.292197,26.1640319 148.222958,24.9062057 C147.15372,23.6483796 146.619109,21.926327 146.619109,19.7399965 C146.619109,17.6634398 147.165292,15.9871257 148.257674,14.7110039 C149.350056,13.434882 150.775684,12.7968307 152.534604,12.7968307 Z M137.120991,12.7968307 C138.11154,12.7968307 139.044217,12.9706368 139.919047,13.3182542 C140.793878,13.6658717 141.578438,14.1781423 142.272748,14.8550814 C142.967058,15.5228728 143.494726,16.2775572 143.855768,17.1191572 C144.216809,17.9607573 144.397327,18.8435093 144.397327,19.7674398 C144.397327,20.7279616 144.219123,21.629009 143.86271,22.4706091 C143.506298,23.3122091 142.985573,24.0577458 142.30052,24.7072415 C141.578438,25.3933285 140.777678,25.9124599 139.898218,26.2646512 C139.018759,26.6168426 138.093025,26.7929356 137.120991,26.7929356 C136.167471,26.7929356 135.250995,26.6168426 134.371535,26.2646512 C133.492076,25.9124599 132.709831,25.4024762 132.024778,24.7346848 C131.330467,24.0577457 130.802799,23.2984874 130.441758,22.4568874 C130.080717,21.6152874 129.900199,20.7188137 129.900199,19.7674398 C129.900199,18.8160659 130.083031,17.9173054 130.448701,17.0711314 C130.814371,16.2249574 131.339725,15.4725599 132.024778,14.8139164 C132.700573,14.1644208 133.478189,13.6658717 134.357649,13.3182542 C135.237109,12.9706368 136.158213,12.7968307 137.120991,12.7968307 Z M102.711139,12.7968307 C103.785006,12.7968307 104.703796,13.0186622 105.467538,13.4623318 C106.23128,13.9060014 106.789034,14.5440527 107.140818,15.376505 L107.140818,13.2496459 L110.15411,13.2496459 L110.15411,26.2577904 L107.140818,26.2577904 L107.140818,24.5700248 C106.603884,25.3201465 105.9767,25.8781557 105.259245,26.2440687 C104.541792,26.6099817 103.720204,26.7929356 102.794456,26.7929356 C100.933705,26.7929356 99.4687319,26.1640319 98.399493,24.9062057 C97.330255,23.6483796 96.7956445,21.926327 96.7956445,19.7399965 C96.7956445,17.6634398 97.341827,15.9871257 98.4342088,14.7110039 C99.5265907,13.434882 100.952219,12.7968307 102.711139,12.7968307 Z M117.333243,4.98919972 L117.333243,15.376505 C117.685027,14.5532005 118.24741,13.9174361 119.02041,13.4691926 C119.793408,13.0209491 120.716827,12.7968307 121.790694,12.7968307 C123.540356,12.7968307 124.959042,13.434882 126.046796,14.7110039 C127.134548,15.9871257 127.678416,17.6634398 127.678416,19.7399965 C127.678416,21.926327 127.143806,23.6483796 126.074568,24.9062057 C125.005329,26.1640319 123.540356,26.7929356 121.679605,26.7929356 C120.753857,26.7929356 119.932269,26.6099817 119.214815,26.2440687 C118.497361,25.8781557 117.870177,25.3201465 117.333243,24.5700248 L117.333243,26.2577904 L114.319951,26.2577904 L114.319951,4.98919972 L117.333243,4.98919972 Z M55.6440731,6.6014961 C56.8244008,6.88965264 57.8589078,7.37219326 58.7476251,8.04913244 C59.923324,8.93647161 60.8143423,10.0753589 61.4207067,11.4658286 C62.0270712,12.8562982 62.3302488,14.4434223 62.3302488,16.2272486 C62.3302488,18.0110748 62.0270712,19.5913381 61.4207067,20.968086 C60.8143423,22.344834 59.923324,23.4814344 58.7476251,24.3779214 C57.8589078,25.0548606 56.8475441,25.5374012 55.7135038,25.8255577 C54.6424657,26.0977056 53.0078812,26.2413372 50.8097058,26.2564563 L49.5272291,26.2577904 L45.0697787,26.2577904 L45.0697787,6.16926346 L49.5272291,6.16926346 C52.4248179,6.16926346 54.4637455,6.31333957 55.6440731,6.6014961 Z M84.8396793,4.98919972 L84.8396793,26.2577904 L81.8263872,26.2577904 L81.8263872,4.98919972 L84.8396793,4.98919972 Z M92.8658673,8.32356586 L92.8658673,13.2496459 L95.1709663,13.2496459 L95.1709663,15.8567635 L92.8658673,15.8567635 L92.8658673,26.2577904 L89.8525753,26.2577904 L89.8525753,15.8567635 L87.5474763,15.8567635 L87.5474763,13.2496459 L89.8525753,13.2496459 L89.8525753,8.32356586 L92.8658673,8.32356586 Z M170.419951,12.7968307 C170.845794,12.7968307 171.264689,12.847143 171.676647,12.9477691 C172.088603,13.0483952 172.493612,13.1947582 172.891683,13.3868626 L171.808565,15.9116501 C171.549355,15.7286936 171.269321,15.5937652 170.968453,15.5068608 C170.667585,15.4199565 170.332007,15.376505 169.961708,15.376505 C168.961901,15.376505 168.244458,15.7721425 167.809357,16.5634295 C167.374255,17.3547166 167.156708,18.6834185 167.156708,20.5495751 L167.156708,26.2577904 L164.143416,26.2577904 L164.143416,13.2222025 L167.156708,13.2222025 L167.156708,15.3216183 C167.48072,14.4617225 167.908871,13.8259581 168.441175,13.4143059 C168.973481,13.0026538 169.633066,12.7968307 170.419951,12.7968307 Z M103.613738,15.4451133 C102.47507,15.4451133 101.579422,15.8316032 100.92677,16.6045945 C100.274119,17.3775859 99.9477979,18.4501525 99.9477979,19.8223265 C99.9477979,21.2036483 100.262547,22.2693542 100.892055,23.0194759 C101.521564,23.7695977 102.410268,24.144653 103.558194,24.144653 C104.641318,24.144653 105.523079,23.7375808 106.203503,22.9234242 C106.883927,22.1092676 107.224134,21.038988 107.224134,19.7125531 C107.224134,18.3678226 106.907071,17.3204121 106.272934,16.5702904 C105.638797,15.8201686 104.752407,15.4451133 103.613738,15.4451133 Z M120.860322,15.4451133 C119.721654,15.4451133 118.83295,15.8201686 118.194184,16.5702904 C117.555418,17.3204121 117.23604,18.3678226 117.23604,19.7125531 C117.23604,21.038988 117.580876,22.1092676 118.270558,22.9234242 C118.960239,23.7375808 119.851257,24.144653 120.943639,24.144653 C122.082308,24.144653 122.964069,23.7695977 123.588948,23.0194759 C124.213828,22.2693542 124.526263,21.2036483 124.526263,19.8223265 C124.526263,18.4501525 124.199942,17.3775859 123.547291,16.6045945 C122.894639,15.8316032 121.998991,15.4451133 120.860322,15.4451133 Z M153.437203,15.4451133 C152.298535,15.4451133 151.402887,15.8316032 150.750235,16.6045945 C150.097584,17.3775859 149.771263,18.4501525 149.771263,19.8223265 C149.771263,21.2036483 150.086012,22.2693542 150.71552,23.0194759 C151.345028,23.7695977 152.233732,24.144653 153.381659,24.144653 C154.464783,24.144653 155.346544,23.7375808 156.026968,22.9234242 C156.707392,22.1092676 157.047599,21.038988 157.047599,19.7125531 C157.047599,18.3678226 156.730536,17.3204121 156.096399,16.5702904 C155.462262,15.8201686 154.575872,15.4451133 153.437203,15.4451133 Z M180.459629,15.4451133 C179.32096,15.4451133 178.425313,15.8316032 177.772661,16.6045945 C177.120009,17.3775859 176.793688,18.4501525 176.793688,19.8223265 C176.793688,21.2036483 177.108437,22.2693542 177.737946,23.0194759 C178.367454,23.7695977 179.256158,24.144653 180.404084,24.144653 C181.496466,24.144653 182.380542,23.7398677 183.056337,22.9302851 C183.732132,22.1207024 184.070025,21.0481358 184.070025,19.7125531 C184.070025,18.3678226 183.752961,17.3204121 183.118825,16.5702904 C182.484687,15.8201686 181.598297,15.4451133 180.459629,15.4451133 Z M137.148763,15.4725567 C136.019351,15.4725567 135.058903,15.8910634 134.26739,16.7280896 C133.475875,17.5651158 133.080124,18.58737 133.080124,19.7948831 C133.080124,21.0023963 133.475875,22.0246505 134.26739,22.8616767 C135.058903,23.6987029 136.019351,24.1172096 137.148763,24.1172096 C138.278175,24.1172096 139.238623,23.6987029 140.030136,22.8616767 C140.821651,22.0246505 141.217401,21.0023963 141.217401,19.7948831 C141.217401,18.58737 140.823965,17.5651158 140.03708,16.7280896 C139.250195,15.8910634 138.287432,15.4725567 137.148763,15.4725567 Z M48.3746796,9.09197946 L48.3746796,23.307631 L51.1519073,23.307631 C52.6793902,23.307631 53.8249852,23.2070064 54.5887266,23.0057542 C55.352468,22.8045021 56.0166817,22.4660376 56.5813875,21.9903506 C57.3497577,21.3408549 57.9260267,20.5335713 58.3102117,19.5684756 C58.6943968,18.6033799 58.8864865,17.480501 58.8864865,16.1998052 C58.8864865,14.9191095 58.6943968,13.7962306 58.3102117,12.8311349 C57.9260267,11.8660392 57.3497577,11.0587556 56.5813875,10.4092599 C56.0074242,9.93357291 55.3200673,9.59510841 54.5192959,9.39385623 C53.7719094,9.20602082 52.6314051,9.10584331 51.0977528,9.09332116 L48.3746796,9.09197946 Z M71.8700259,15.3216183 C70.8794764,15.3216183 70.0833458,15.5594582 69.4816101,16.0351452 C68.8798745,16.5108322 68.4586658,17.2289258 68.2179715,18.1894476 L75.4248774,18.1894476 C75.3045303,17.2563693 74.9434942,16.5451365 74.3417586,16.0557277 C73.7400229,15.5663189 72.9161202,15.3216183 71.8700259,15.3216183 Z" id="形状结合" fill="#040000"></path>
                <path d="M26.1179769,14.9291785 C26.9178185,14.9291785 27.71766,15.368272 28.1620165,16.0708215 L28.1620165,16.0708215 L37.0491451,31 L31.5391254,31 L27.3621749,23.8866856 C27.095561,23.5354108 26.6512046,23.2719547 26.2068482,23.2719547 C25.7624917,23.2719547 25.3181353,23.5354108 25.0515215,23.9745042 L25.0515215,23.9745042 L21.0523136,31 L15.5422938,31 L24.0739373,16.1586402 C24.5182937,15.368272 25.3181353,14.9291785 26.1179769,14.9291785 Z" id="形状结合-path" fill="#FBE4AB"></path>
                <path d="M17.0531057,0 C17.9418186,0 18.7416601,0.439093484 19.1860166,1.14164306 L24.2516799,9.39660057 L12.2540562,31 L2.47821476,31 C1.5895019,31 0.789660321,30.6487252 0.34530389,29.9461756 C-0.0990525407,29.2436261 -0.0990525407,28.2776204 0.256432604,27.5750708 L15.0090661,1.22946176 C15.4534225,0.526912181 16.1643928,0 17.0531057,0 Z" id="形状结合-path" fill="#6FC6CB"></path>
            </g>
        </g>
    </g>
</svg>